<?xml version="1.0" standalone="no"?>
<!DOCTYPE svg PUBLIC "-//W3C//DTD SVG 20010904//EN"
 "http://www.w3.org/TR/2001/REC-SVG-20010904/DTD/svg10.dtd">
<svg version="1.0" xmlns="http://www.w3.org/2000/svg"
 width="64.000000pt" height="64.000000pt" viewBox="0 0 64.000000 64.000000"
 preserveAspectRatio="xMidYMid meet">

<g transform="translate(0.000000,64.000000) scale(0.100000,-0.100000)"
fill="#000000" stroke="none">
<path d="M0 320 l0 -320 320 0 320 0 0 320 0 320 -320 0 -320 0 0 -320z m313
293 c3 -5 -16 -9 -42 -10 -33 -1 -40 1 -26 7 26 11 62 12 68 3z m-18 -23 c3
-5 1 -10 -4 -10 -6 0 -11 5 -11 10 0 6 2 10 4 10 3 0 8 -4 11 -10z m38 -48
c-2 -12 2 -22 7 -22 15 0 11 -23 -9 -49 -17 -22 -19 -23 -47 -8 -16 9 -24 16
-19 17 6 0 4 4 -4 9 -7 5 -10 14 -6 21 5 8 11 8 17 2 12 -12 38 -5 38 9 0 5
-12 9 -27 9 -16 0 -35 5 -43 10 -12 8 -9 10 12 10 15 0 30 5 33 11 4 5 17 9
28 7 16 -2 21 -9 20 -26z m-105 -63 c4 -24 3 -24 -12 -4 -19 24 -20 38 -3 33
6 -3 13 -15 15 -29z m52 -53 c0 -8 -5 -18 -10 -21 -6 -3 -19 -23 -30 -43 -22
-42 -27 -22 -9 41 7 26 15 37 29 37 11 0 20 -6 20 -14z m50 -60 c0 -2 -7 -7
-16 -10 -8 -3 -12 -2 -9 4 6 10 25 14 25 6z m-120 -96 c-11 -7 -12 -10 -2 -10
8 0 -1 -12 -18 -26 -21 -18 -35 -23 -41 -17 -11 11 43 63 64 63 7 0 6 -4 -3
-10z m310 -150 c0 -5 -4 -10 -10 -10 -5 0 -10 5 -10 10 0 6 5 10 10 10 6 0 10
-4 10 -10z m-294 -40 c0 -26 -41 -27 -55 -2 -10 16 -10 16 -11 0 0 -13 -8 -18
-30 -18 -22 0 -30 5 -31 18 0 14 -2 14 -9 -3 -5 -11 -9 -17 -9 -13 -1 3 -4 13
-7 21 -4 13 8 15 73 16 72 1 79 -1 79 -19z m108 3 c-4 -13 -17 -18 -50 -20
-37 -1 -44 1 -44 18 0 16 7 19 49 19 42 0 48 -3 45 -17z m154 -49 c-4 -23 -58
-28 -59 -6 0 11 -3 12 -6 5 -7 -18 -23 -16 -23 2 0 11 12 15 46 15 37 0 45 -3
42 -16z m72 -2 c0 -18 -3 -19 -52 -13 -4 1 -5 8 -2 16 9 22 54 19 54 -3z m27
-2 c-1 -11 -5 -20 -9 -20 -4 0 -8 9 -8 20 0 11 4 20 9 20 6 0 9 -9 8 -20z"/>
</g>
</svg>
